<svg xmlns="http://www.w3.org/2000/svg" viewBox="0 0 294.76145 153.22499"><defs><style>.a,.b,.c,.d{fill:#231f20;}.b{font-size:51px;font-family:BickhamScriptPro-Regular, Bickham Script Pro;}.c{font-size:71px;}.c,.d{font-family:PlayfairDisplay-Regular, Playfair Display;}.d{font-size:17px;}.e{letter-spacing:-0.01201em;}.f{letter-spacing:-0.01298em;}</style></defs><path class="a" d="M26.98725,42.18016a22.84941,22.84941,0,0,1-6.97118-2.19068h0c-4.52744-2.19212-6.66449-6.067-6.65981-9.90133h0c.01167-5.63708,4.612-11.14433,12.703-11.1579h0c.4584,0,.93593.021,1.41163.06118h0c.01262.00937,5.42839.2259,8.47192,3.62517h0a.25906.25906,0,0,1-.022.36739h0a.26072.26072,0,0,1-.36825-.021h0c-2.81668-3.19478-8.10835-3.44124-8.11762-3.45194h0c-.471-.04627-.929-.06119-1.37569-.06119h0c-7.84315.00746-12.17691,5.28508-12.18436,10.63832h0c.0042,3.64008,2.00541,7.31706,6.36153,9.43164h0a21.5913,21.5913,0,0,0,7.4184,2.21459C40.69109,42.39067,46.197,35.7649,54.88688,32.579a24.5638,24.5638,0,0,1,15.75542-.57466A22.6394,22.6394,0,0,1,81.10882,38.119h0a.25678.25678,0,0,1-.0261.36739h0a.26383.26383,0,0,1-.3693-.02151l.00421-.00325h0a22.23277,22.23277,0,0,0-11.53735-6.277s-5.98811-1.82473-15.25915,2.61687C44.65229,39.24351,39.35421,43.18836,26.98725,42.18016Z"/><path class="a" d="M61.21859,54.20669a3.95124,3.95124,0,0,0,1.30791-2.7h0a3.17245,3.17245,0,0,0-.74128-1.98858h0a.24828.24828,0,0,0-.35755-.04426h0a.25312.25312,0,0,0-.04388.35984h0a2.66464,2.66464,0,0,1,.62781,1.673h0a3.42726,3.42726,0,0,1-1.11,2.28734h0a4.03292,4.03292,0,0,1-2.37137.76088h0a5.3423,5.3423,0,0,1-2.63274-.74033h0a4.37883,4.37883,0,0,1-2.05435-4.05833h0c-.00889-4.58117,4.40708-11.052,11.96171-11.81286h0a22.0596,22.0596,0,0,1,2.52117-.1326h0c8.90049-.00411,13.11427,5.0368,13.1222,5.04474H81.445a.26665.26665,0,0,0,.37064.03824h0a.26242.26242,0,0,0,.02983-.36969h0c-.02094-.03594-4.40842-5.23278-13.51942-5.23278h0a23.74145,23.74145,0,0,0-2.57395.1326h0c-7.8398.81308-12.42011,7.45243-12.42756,12.33235h0a4.88883,4.88883,0,0,0,2.30368,4.49848h0a5.79328,5.79328,0,0,0,2.902.81833h0a4.56959,4.56959,0,0,0,2.68838-.86642Z"/><path class="a" d="M51.878,39.01713c7.10645-4.43787,13.15575-4.75019,14.727-4.75019.26,0,.39683.01118.40056.01118a.25578.25578,0,0,1,.239.27638.26179.26179,0,0,1-.27733.2413v-.00134s-.11578-.00937-.36223-.00937c-1.52177,0-7.56773.30621-14.67055,4.8066A14.69607,14.69607,0,0,0,49.8366,41.156l-.39588-.51165C51.03581,39.50631,51.878,39.01713,51.878,39.01713Z"/><path class="a" d="M20.66587,48.99446a.21624.21624,0,0,1,.0196-.23432l.32026-.38976a.20627.20627,0,0,1,.28049-.03967c.02992.02093.05554.03967.084.05879a.21536.21536,0,0,1,.08729.14139.20947.20947,0,0,1-.04475.16109l-.35056.42992a.202.202,0,0,1-.17552.07657.21674.21674,0,0,1-.16339-.10277C20.70229,49.05937,20.68413,49.02716,20.66587,48.99446Z"/><path class="a" d="M22.52052,49.20172a.189.189,0,0,1,.08728.12973.20149.20149,0,0,1-.0262.15832l-.597.90743a.20908.20908,0,0,1-.32906.02476c-.02428-.028-.04856-.05649-.07237-.08355a.20709.20709,0,0,1-.01634-.24933l.57694-.88459a.20642.20642,0,0,1,.28939-.06156C22.46258,49.16205,22.49012,49.18117,22.52052,49.20172Z"/><path class="a" d="M23.73464,49.8431a.207.207,0,0,1,.0891.27629l-.69224,1.37569a.204.204,0,0,1-.14235.10879.20652.20652,0,0,1-.17371-.04388c-.02887-.02055-.0564-.04579-.08489-.06816a.21.21,0,0,1-.05-.25162l.68058-1.35514a.21013.21013,0,0,1,.12332-.10411.1915.1915,0,0,1,.15956.01549C23.67489,49.81137,23.70376,49.82819,23.73464,49.8431Z"/><path class="a" d="M24.91378,50.28277a.20953.20953,0,0,1,.13068.26328l-.60362,1.81918a.21405.21405,0,0,1-.12409.12792.2088.2088,0,0,1-.17839-.01635c-.03078-.01683-.063-.03738-.0933-.0565a.20667.20667,0,0,1-.0892-.24369l.5933-1.79623a.21045.21045,0,0,1,.26567-.13164C24.84657,50.25992,24.88108,50.27159,24.91378,50.28277Z"/><path class="a" d="M25.9846,50.58018a.20946.20946,0,0,1,.17083.23011l-.2955,2.20751a.21341.21341,0,0,1-.10363.15268.21841.21841,0,0,1-.18441.00927c-.03451-.01348-.06673-.029-.1022-.04245a.211.211,0,0,1-.12227-.21844l.29311-2.18094a.20839.20839,0,0,1,.08594-.13957.19574.19574,0,0,1,.15727-.036Z"/><path class="a" d="M27.16975,50.793a.20543.20543,0,0,1,.17371.20592l-.01214,2.54823a.15982.15982,0,0,1-.05975.1218.15592.15592,0,0,1-.13537.028c-.05555-.01492-.113-.028-.169-.04293a.20831.20831,0,0,1-.15641-.19837l.01262-2.47452a.21681.21681,0,0,1,.07381-.15774.197.197,0,0,1,.16663-.04531C27.09834,50.78324,27.13381,50.78745,27.16975,50.793Z"/><path class="a" d="M28.4876,50.89576a.2062.2062,0,0,1,.19226.21281l-.07046,2.66686a.2098.2098,0,0,1-.077.154.20615.20615,0,0,1-.16807.04158c-.03451-.00755-.06855-.01309-.10449-.021a.20931.20931,0,0,1-.16711-.20917l.07237-2.64861a.21994.21994,0,0,1,.06854-.15076.22665.22665,0,0,1,.155-.05363A.6571.6571,0,0,0,28.4876,50.89576Z"/><path class="a" d="M29.74045,50.88075a.20031.20031,0,0,1,.21424.18862l.24187,2.89832a.21868.21868,0,0,1-.057.162.21573.21573,0,0,1-.15822.062h-.0066c-.04388-.00516-.08307-.00936-.12083-.01682a.2067.2067,0,0,1-.17514-.189l-.239-2.87872a.20924.20924,0,0,1,.04953-.1522.19645.19645,0,0,1,.14846-.07007C29.67228,50.88219,29.70641,50.88075,29.74045,50.88075Z"/><path class="a" d="M30.99377,50.77951a.20426.20426,0,0,1,.15411.03824.21007.21007,0,0,1,.08164.13728l.41729,2.99918a.21655.21655,0,0,1-.04894.16567.199.199,0,0,1-.15918.06864c-.0346,0-.07007,0-.10554-.00191a.2061.2061,0,0,1-.19981-.17734l-.41586-2.98a.21256.21256,0,0,1,.03729-.1564A.22271.22271,0,0,1,30.893,50.793C30.927,50.78745,30.95973,50.78324,30.99377,50.77951Z"/><path class="a" d="M32.33026,50.57827a.2059.2059,0,0,1,.245.1522l.73239,2.94927a.20093.20093,0,0,1-.02753.16386.19835.19835,0,0,1-.13862.09149c-.0327.00554-.06769.01118-.10268.01491a.2039.2039,0,0,1-.23431-.15172l-.7324-2.9464a.21.21,0,0,1,.15774-.25353C32.26305,50.59328,32.29709,50.58621,32.33026,50.57827Z"/><path class="a" d="M33.53741,50.31594a.206.206,0,0,1,.23479.12323l1.11422,2.721a.204.204,0,0,1-.00181.16386.21416.21416,0,0,1-.12466.11061c-.03452.01118-.06626.02247-.098.03461a.21091.21091,0,0,1-.25773-.12046l-1.11748-2.73264a.20053.20053,0,0,1,.00928-.17552.21976.21976,0,0,1,.13957-.10641C33.47154,50.33086,33.50328,50.32111,33.53741,50.31594Z"/><path class="a" d="M35.216,49.82628a.20664.20664,0,0,1,.25066.11434l1.07092,2.46056a.20841.20841,0,0,1-.09618.27026c-.04292.021-.08728.04245-.13212.06252a.20561.20561,0,0,1-.16194.00985.19914.19914,0,0,1-.11864-.11252l-1.08153-2.4815a.20865.20865,0,0,1,.00182-.17132.20317.20317,0,0,1,.12934-.11013C35.125,49.85286,35.16931,49.83985,35.216,49.82628Z"/><path class="a" d="M38.32766,48.56263a.20807.20807,0,0,1,.26519.086l1.012,1.74251a.208.208,0,0,1-.05421.27026c-.062.04627-.12418.0934-.18814.141a.19979.19979,0,0,1-.16472.03451.19712.19712,0,0,1-.13585-.09895L38.0247,48.94915a.20308.20308,0,0,1-.01817-.16759.22029.22029,0,0,1,.11386-.126C38.18808,48.62563,38.25863,48.59676,38.32766,48.56263Z"/><path class="a" d="M39.70009,47.85643a.21018.21018,0,0,1,.26883.06482l.96958,1.38927a.20788.20788,0,0,1-.03833.27819c-.07142.05688-.1414.11434-.21329.17132a.20344.20344,0,0,1-.15917.0434.1985.1985,0,0,1-.14006-.08919L39.38729,48.283a.20944.20944,0,0,1-.03031-.16711.19862.19862,0,0,1,.10736-.13766C39.54274,47.939,39.62161,47.89888,39.70009,47.85643Z"/><path class="a" d="M41.00619,47.08618a.20612.20612,0,0,1,.27447.05277l.84816,1.12312a.20906.20906,0,0,1-.029.28192c-.0719.06444-.14465.12744-.21941.19a.18962.18962,0,0,1-.1563.049.21007.21007,0,0,1-.14618-.08174l-.87665-1.16651a.21.21,0,0,1-.0392-.16195.19468.19468,0,0,1,.10086-.13814C40.84281,47.18331,40.92636,47.1357,41.00619,47.08618Z"/><path class="a" d="M42.51113,46.06345a.20772.20772,0,0,1,.28756.04388l.67781.90419a.20815.20815,0,0,1-.02333.2758c-.07476.07237-.15267.14293-.22781.21147a.20546.20546,0,0,1-.16157.05746.19959.19959,0,0,1-.1456-.08031l-.70352-.9364a.20335.20335,0,0,1-.04015-.15774.224.224,0,0,1,.08222-.1391C42.34258,46.18524,42.42805,46.125,42.51113,46.06345Z"/><path class="a" d="M43.61139,45.20916c.15774-.13259.29923-.245.443-.365a.20955.20955,0,0,1,.2912.02849l.58823.70763a.20713.20713,0,0,1-.01539.28011c-.09856.097-.19751.196-.29827.2913a.21045.21045,0,0,1-.30487-.0131l-.70859-.85285A.05736.05736,0,0,1,43.61139,45.20916Z"/><path class="a" d="M45.49023,43.66264a.21124.21124,0,0,1,.27915.01682l.51624.53307a.2083.2083,0,0,1-.00134.29082c-.12189.12189-.24645.24368-.37112.36739a.20773.20773,0,0,1-.14846.0607.20518.20518,0,0,1-.14465-.06625l-.55085-.56538a.20253.20253,0,0,1-.05927-.154.22137.22137,0,0,1,.07466-.14981C45.2214,43.88347,45.35811,43.771,45.49023,43.66264Z"/><path class="a" d="M46.949,42.50731a.20519.20519,0,0,1,.27218.01128l.39062.371a.20533.20533,0,0,1,.06357.14847.21708.21708,0,0,1-.06118.15028c-.14847.14293-.29827.288-.44722.43795a.20617.20617,0,0,1-.28938,0l-.43651-.41453a.20971.20971,0,0,1-.06348-.15879.20627.20627,0,0,1,.078-.1563C46.62223,42.76409,46.7903,42.631,46.949,42.50731Z"/><path class="a" d="M48.50011,41.32167a.2135.2135,0,0,1,.27361.02285l.23154.232a.19958.19958,0,0,1,.06023.15028.21307.21307,0,0,1-.06635.15038c-.18948.17132-.38326.35239-.5779.53307a.20615.20615,0,0,1-.28757-.00421l-.288-.289a.203.203,0,0,1-.06166-.16338.21279.21279,0,0,1,.08126-.14837C48.08329,41.63954,48.3004,41.472,48.50011,41.32167Z"/><path class="a" d="M36.99824,49.35621a.20755.20755,0,0,0-.25487-.09292l-.17925.06587a.20883.20883,0,0,0-.1218.12179.21423.21423,0,0,0,.01252.17L37.585,51.74852a.204.204,0,0,0,.12973.10277.20019.20019,0,0,0,.16568-.0262l.15965-.10363a.20414.20414,0,0,0,.07285-.27026Z"/><path class="a" d="M20.34943,47.64726a.11459.11459,0,0,0-.12285-.19187.11522.11522,0,0,0-.063.13116.10936.10936,0,0,0,.07754.07935A.11534.11534,0,0,0,20.34943,47.64726Z"/><path class="a" d="M37.7204,63.52639C25.64149,66.33933,16.39282,65.73428,9.65223,62.554,2.91259,59.3737,1.00011,54.24732.83348,49.88182.685,46.02005,2.70017,40.46327,7.885,39.67763c0,0,6.70646-.89864,8.25528,5.99414,0,0,.45841.28757.39311-.19234A8.32386,8.32386,0,0,0,11.87,39.76864c-3.61723-1.53438-9.33222.388-11.08505,5.59549-3.48655,10.3518,4.97514,21.54,18.77936,21.89612,10.31805.26653,25.805-3.15692,34.0973-11.2297,0,0,.14044-.5084-.31787-.3063C53.3437,55.72425,48.2938,61.06544,37.7204,63.52639Z"/><path class="a" d="M8.40684,48.7284s.59607-.22035.05411-.63583A3.3382,3.3382,0,0,0,6.42428,51.082C6.098,53.84169,8.60751,62.69313,25.11683,61.73388c15.06356-.8757,23.93786-7.87116,23.93786-7.87116s.11347-.71194-.5433-.41453c0,0-7.009,4.837-14.6043,6.34242C26.31231,61.29555,15.132,62.02842,10.18482,57.332,5.24008,52.63311,7.28086,49.15832,8.40684,48.7284Z"/><path class="a" d="M267.77467,42.18016a22.86151,22.86151,0,0,0,6.97118-2.19068h0c4.526-2.19212,6.664-6.067,6.65933-9.90133h0c-.01119-5.63708-4.6111-11.14433-12.70348-11.1579h0c-.45936,0-.9364.021-1.41163.06118h0c-.01118.00937-5.4279.2259-8.47144,3.62517h0a.25834.25834,0,0,0,.02237.36739h0a.25919.25919,0,0,0,.36692-.021h0c2.81667-3.19478,8.1093-3.44124,8.11857-3.45194h0c.47151-.04627.92991-.06119,1.37521-.06119h0c7.84411.00746,12.17787,5.28508,12.18532,10.63832h0c-.00564,3.64008-2.00627,7.31706-6.36153,9.43164h0a21.59761,21.59761,0,0,1-7.42022,2.21459c-13.034.65629-18.54131-5.96948-27.23118-9.15536a24.56011,24.56011,0,0,0-15.75447-.57466,22.63246,22.63246,0,0,0-10.46748,6.1146h0a.25688.25688,0,0,0,.02706.36739h0a.26327.26327,0,0,0,.36882-.02151l-.00468-.00325h0a22.24042,22.24042,0,0,1,11.53648-6.277s5.98993-1.82473,15.26049,2.61687C250.10915,39.24351,255.40724,43.18836,267.77467,42.18016Z"/><path class="a" d="M233.54428,54.20669a3.9438,3.9438,0,0,1-1.30982-2.7h0a3.1768,3.1768,0,0,1,.74224-1.98858h0a.247.247,0,0,1,.35659-.04426h0a.25293.25293,0,0,1,.04484.35984h0a2.66551,2.66551,0,0,0-.62829,1.673h0a3.42423,3.42423,0,0,0,1.111,2.28734h0a4.03182,4.03182,0,0,0,2.37127.76088h0a5.35245,5.35245,0,0,0,2.63274-.74033h0a4.38117,4.38117,0,0,0,2.054-4.05833h0c.00841-4.58117-4.40756-11.052-11.96219-11.81286h0a22.06812,22.06812,0,0,0-2.52069-.1326h0c-8.901-.00411-13.11523,5.0368-13.12268,5.04474h.00373a.26678.26678,0,0,1-.37064.03824h0a.26165.26165,0,0,1-.02983-.36969h0c.02045-.03594,4.4065-5.23278,13.51942-5.23278h0a23.769,23.769,0,0,1,2.57385.1326h0c7.84037.81308,12.42059,7.45243,12.42719,12.33235h0a4.89017,4.89017,0,0,1-2.30416,4.49848h0a5.785,5.785,0,0,1-2.90071.81833h0a4.56522,4.56522,0,0,1-2.68781-.86642Z"/><path class="a" d="M242.8831,39.01713c-7.10655-4.43787-13.15633-4.75019-14.72657-4.75019-.25955,0-.39588.01118-.40056.01118a.25636.25636,0,0,0-.239.27638.26121.26121,0,0,0,.27638.2413v-.00134s.11673-.00937.36318-.00937c1.52178,0,7.56773.30621,14.67055,4.8066a14.63182,14.63182,0,0,1,2.0968,1.5643l.39684-.51165C243.72611,39.50631,242.8831,39.01713,242.8831,39.01713Z"/><path class="a" d="M274.09509,48.99446a.211.211,0,0,0-.01959-.23432l-.32027-.38976a.20554.20554,0,0,0-.28-.03967l-.08317.05879a.22062.22062,0,0,0-.08958.14139.218.218,0,0,0,.0457.16109l.351.42992a.203.203,0,0,0,.17553.07657.21676.21676,0,0,0,.16338-.10277C274.05963,49.05937,274.07645,49.02716,274.09509,48.99446Z"/><path class="a" d="M272.24092,49.20172a.19434.19434,0,0,0-.08776.12973.21018.21018,0,0,0,.02716.15832l.59655.90743a.19721.19721,0,0,0,.15869.09283.19274.19274,0,0,0,.169-.06807c.0261-.028.04942-.05649.07275-.08355a.20361.20361,0,0,0,.01587-.24933l-.57407-.88459a.20887.20887,0,0,0-.2913-.06156C272.29887,49.16205,272.27085,49.18117,272.24092,49.20172Z"/><path class="a" d="M271.02632,49.8431a.20686.20686,0,0,0-.08862.27629l.69272,1.37569a.20507.20507,0,0,0,.14187.10879A.20722.20722,0,0,0,271.946,51.56c.02887-.02055.05592-.04579.08585-.06816a.21025.21025,0,0,0,.04856-.25162l-.68058-1.35514a.21019.21019,0,0,0-.12323-.10411.18977.18977,0,0,0-.15879.01549C271.08607,49.81137,271.05806,49.82819,271.02632,49.8431Z"/><path class="a" d="M269.84814,50.28277a.20965.20965,0,0,0-.13164.26328l.6041,1.81918a.20771.20771,0,0,0,.30335.11157c.02991-.01683.06347-.03738.09339-.0565a.20812.20812,0,0,0,.08872-.24369l-.59473-1.79623a.21023.21023,0,0,0-.10362-.12046.21766.21766,0,0,0-.16148-.01118C269.91449,50.25992,269.88179,50.27159,269.84814,50.28277Z"/><path class="a" d="M268.77637,50.58018a.20986.20986,0,0,0-.17084.23011l.29693,2.20751a.207.207,0,0,0,.10268.15268.21727.21727,0,0,0,.18393.00927c.03547-.01348.06721-.029.10172-.04245a.20978.20978,0,0,0,.12323-.21844l-.29311-2.18094a.20665.20665,0,0,0-.08594-.13957.19391.19391,0,0,0-.15679-.036Z"/><path class="a" d="M267.59169,50.793a.20586.20586,0,0,0-.17371.20592l.01214,2.54823a.16038.16038,0,0,0,.06071.1218.15528.15528,0,0,0,.13537.028c.05507-.01492.11109-.028.169-.04293a.20777.20777,0,0,0,.15583-.19837l-.014-2.47452a.21855.21855,0,0,0-.0738-.15774.19359.19359,0,0,0-.1652-.04531C267.66262,50.78324,267.62811,50.78745,267.59169,50.793Z"/><path class="a" d="M266.27431,50.89576a.2076.2076,0,0,0-.1932.21281l.07093,2.66686a.20633.20633,0,0,0,.07658.154.20852.20852,0,0,0,.16892.04158c.03461-.00755.06817-.01309.10363-.021a.20883.20883,0,0,0,.16711-.20917l-.07275-2.64861a.213.213,0,0,0-.06721-.15076.22583.22583,0,0,0-.15592-.05363A.63964.63964,0,0,1,266.27431,50.89576Z"/><path class="a" d="M265.02147,50.88075a.20131.20131,0,0,0-.21472.18862l-.24273,2.89832a.21842.21842,0,0,0,.0588.162.20978.20978,0,0,0,.15688.062h.00746c.042-.00516.08212-.00936.1195-.01682a.20568.20568,0,0,0,.17552-.189l.23986-2.87872a.21885.21885,0,0,0-.04847-.1522.2043.2043,0,0,0-.15038-.07007C265.08869,50.88219,265.05417,50.88075,265.02147,50.88075Z"/><path class="a" d="M263.76767,50.77951a.20424.20424,0,0,0-.1541.03824.2094.2094,0,0,0-.08117.13728l-.41739,2.99918a.213.213,0,0,0,.04856.16567.19929.19929,0,0,0,.15966.06864c.0346,0,.06912,0,.10363-.00191a.20555.20555,0,0,0,.20076-.17734l.41729-2.98a.20928.20928,0,0,0-.03919-.1564.2188.2188,0,0,0-.13814-.07983C263.83392,50.78745,263.80314,50.78324,263.76767,50.77951Z"/><path class="a" d="M262.43166,50.57827a.20591.20591,0,0,0-.2455.1522l-.732,2.94927a.2077.2077,0,0,0,.1653.25535c.03269.00554.06816.01118.10172.01491a.20567.20567,0,0,0,.23622-.15172l.73192-2.9464a.20542.20542,0,0,0-.0261-.15917.199.199,0,0,0-.13164-.09436C262.49705,50.59328,262.46531,50.58621,262.43166,50.57827Z"/><path class="a" d="M261.22356,50.31594a.20646.20646,0,0,0-.23432.12323l-1.1147,2.721a.204.204,0,0,0,.127.27447c.03365.01118.06625.02247.09808.03461a.20991.20991,0,0,0,.25669-.12046l1.11843-2.73264a.19742.19742,0,0,0-.00927-.17552.22129.22129,0,0,0-.1391-.10641C261.2899,50.33086,261.25816,50.32111,261.22356,50.31594Z"/><path class="a" d="M259.54682,49.82628a.207.207,0,0,0-.252.11434l-1.07092,2.46056a.20709.20709,0,0,0,.09618.27026c.04292.021.0868.04245.13259.06252a.20459.20459,0,0,0,.281-.10267l1.08019-2.4815a.20449.20449,0,0,0-.13068-.28145C259.63745,49.85286,259.59262,49.83985,259.54682,49.82628Z"/><path class="a" d="M256.43331,48.56263a.20812.20812,0,0,0-.2652.086L255.157,50.39109a.20772.20772,0,0,0,.05326.27026c.06347.04627.12513.0934.18947.141a.20658.20658,0,0,0,.29971-.06444l1.03726-1.78877a.20174.20174,0,0,0,.01865-.16759.22036.22036,0,0,0-.11482-.126C256.57336,48.62563,256.50329,48.59676,256.43331,48.56263Z"/><path class="a" d="M255.06087,47.85643a.20736.20736,0,0,0-.267.06482l-.97092,1.38927a.20638.20638,0,0,0,.03834.27819c.07093.05688.14187.11434.2128.17132a.20727.20727,0,0,0,.16061.0434.19485.19485,0,0,0,.13911-.08919l.99987-1.43124a.20025.20025,0,0,0,.02983-.16711.19141.19141,0,0,0-.10736-.13766C255.21966,47.939,255.14031,47.89888,255.06087,47.85643Z"/><path class="a" d="M253.75573,47.08618a.20731.20731,0,0,0-.27542.05277l-.84865,1.12312a.21119.21119,0,0,0,.02993.28192c.07275.06444.14464.12744.2194.19a.18972.18972,0,0,0,.15592.049.21105.21105,0,0,0,.14656-.08174l.8757-1.16651a.20168.20168,0,0,0,.04015-.16195.191.191,0,0,0-.0999-.13814C253.91911,47.18331,253.836,47.1357,253.75573,47.08618Z"/><path class="a" d="M252.24984,46.06345a.20794.20794,0,0,0-.28757.04388l-.67781.90419a.207.207,0,0,0,.02343.2758c.07466.07237.15305.14293.22867.21147a.20592.20592,0,0,0,.30716-.02285l.70391-.9364a.20812.20812,0,0,0,.03929-.15774.2195.2195,0,0,0-.08317-.1391C252.41972,46.18524,252.33291,46.125,252.24984,46.06345Z"/><path class="a" d="M251.14909,45.20916c-.15678-.13259-.29779-.245-.44244-.365a.20974.20974,0,0,0-.29129.02849l-.58823.70763a.20817.20817,0,0,0,.01587.28011c.099.097.198.196.29789.2913a.19847.19847,0,0,0,.15774.05879.19273.19273,0,0,0,.14656-.07189l.70954-.85285A.05736.05736,0,0,0,251.14909,45.20916Z"/><path class="a" d="M249.27169,43.66264a.21108.21108,0,0,0-.27915.01682l-.51815.53307a.20833.20833,0,0,0,.00373.29082c.12046.12189.24645.24368.36968.36739a.21167.21167,0,0,0,.14943.0607.2043.2043,0,0,0,.14378-.06625l.55075-.56538a.202.202,0,0,0,.06071-.154.22654.22654,0,0,0-.07562-.14981C249.53966,43.88347,249.40333,43.771,249.27169,43.66264Z"/><path class="a" d="M247.81245,42.50731a.20454.20454,0,0,0-.2717.01128l-.3911.371a.20632.20632,0,0,0-.06262.14847.22011.22011,0,0,0,.05975.15028c.14943.14293.2978.288.44818.43795a.205.205,0,0,0,.28842,0l.43785-.41453a.21391.21391,0,0,0,.06262-.15879.21055.21055,0,0,0-.07753-.1563C248.13921,42.76409,247.9721,42.631,247.81245,42.50731Z"/><path class="a" d="M246.26171,41.32167a.21319.21319,0,0,0-.27351.02285l-.2325.232a.20277.20277,0,0,0-.05975.15028.21214.21214,0,0,0,.0673.15038c.18853.17132.38183.35239.57781.53307a.2051.2051,0,0,0,.28671-.00421l.28842-.289a.20074.20074,0,0,0,.06071-.16338.209.209,0,0,0-.08212-.14837C246.67911,41.63954,246.46056,41.472,246.26171,41.32167Z"/><path class="a" d="M257.76368,49.35621a.2067.2067,0,0,1,.25392-.09292l.17926.06587a.20474.20474,0,0,1,.12141.12179.20916.20916,0,0,1-.01215.17l-1.12971,2.12759a.20519.20519,0,0,1-.12973.10277.19858.19858,0,0,1-.16529-.0262l-.16052-.10363a.20554.20554,0,0,1-.07284-.27026Z"/><path class="a" d="M274.41249,47.64726a.11468.11468,0,0,1,.12323-.19187.11814.11814,0,0,1,.06347.13116.11259.11259,0,0,1-.07839.07935A.11488.11488,0,0,1,274.41249,47.64726Z"/><path class="a" d="M257.04105,63.52639c12.078,2.81294,21.32709,2.20789,28.06864-.97236,6.73868-3.18033,8.65164-8.30671,8.81876-12.67221.14846-3.86177-1.86632-9.41855-7.05148-10.20419,0,0-6.70791-.89864-8.25577,5.99414,0,0-.45841.28757-.39311-.19234a8.31832,8.31832,0,0,1,4.66339-5.71079c3.61675-1.53438,9.33126.388,11.08553,5.59549,3.48511,10.3518-4.97514,21.54-18.77936,21.89612-10.319.26653-25.8055-3.15692-34.09778-11.2297,0,0-.14092-.5084.31835-.3063C241.41822,55.72425,246.46812,61.06544,257.04105,63.52639Z"/><path class="a" d="M286.35508,48.7284s-.59655-.22035-.05411-.63583a3.33813,3.33813,0,0,1,2.03619,2.98942c.32581,2.7597-2.18275,11.61114-18.69351,10.65189-15.0626-.8757-23.93642-7.87116-23.93642-7.87116s-.11491-.71194.54234-.41453c0,0,7.00857,4.837,14.6043,6.34242,7.59574,1.50494,18.77649,2.23781,23.72275-2.45865C289.52088,52.63311,287.47915,49.15832,286.35508,48.7284Z"/><text class="b" transform="translate(33.71324 98.50234)">John</text><text class="b" transform="translate(188.65856 98.50234)">Dati</text><path class="a" d="M183.5534,15.15331c-2.87642,5.17724-11.15837,11.1602-21.97413,8.62736-10.81661-2.52959-13.00308-9.31826-13.00308-9.31826s3.33569-5.17724,2.87642-9.77992c-.5649-5.66786-3.797-4.60307-3.797-4.60307s-2.18647-.11481-2.76113,4.028c-.57417,4.14007,2.875,10.23832,2.875,10.23832-1.37932,3.22231-8.62736,10.2411-19.90333,9.20708-11.27549-1.03764-14.72752-8.39954-14.72752-8.39954-4.373,3.79648,2.876,10.1258,15.18727,10.23966,12.31275.11482,20.01967-10.23966,20.01967-10.23966.9214,2.876,6.7882,9.20383,16.68332,10.35448,9.89617,1.15074,16.338-2.76247,18.64121-5.868C185.97142,16.53225,183.5534,15.15331,183.5534,15.15331Zm-35.32309-1.497s-2.644-3.67985-2.76113-7.24756c-.11348-3.56866.57552-5.75466,2.76113-5.75466,2.18695,0,2.98043,3.29515,2.53235,6.446A15.04566,15.04566,0,0,1,148.23031,13.6563Z"/><path class="a" d="M139.74061,9.03125a3.52711,3.52711,0,0,0-.64606.06109.23525.23525,0,0,0-.183.27361.23952.23952,0,0,0,.27218.18432h0c2.11554-.00134,3.94437,1.99556,2.71725,5.3715-1.05782,2.91284-4.62228,4.67868-5.583,5.11146a18.5981,18.5981,0,0,1-6.25465,1.0713,18.51382,18.51382,0,0,1-11.56774-3.908c-2.67519-2.16172-3.654-4.42391-3.65777-6.40962a6.00538,6.00538,0,0,1,4.3328-5.76824,6.46262,6.46262,0,0,1,1.52129-.18719c2.49268.00277,4.097,1.5558,4.10126,3.13732a2.41833,2.41833,0,0,1-.13719.8127c-.77073,2.13093-2.16219,2.13705-2.30043,2.14776a.38769.38769,0,0,0-.08776.01309.23164.23164,0,0,0,.10975.44856c.30056.00287,1.913-.17973,2.70979-2.4553a2.85327,2.85327,0,0,0,.16616-.96681c-.00421-1.91105-1.88687-3.59333-4.56158-3.59333a6.66527,6.66527,0,0,0-1.63008.19512,6.46169,6.46169,0,0,0-4.68432,6.21632c0,2.145,1.07368,4.55086,3.82965,6.76764a18.968,18.968,0,0,0,11.85617,4.00977A16.99831,16.99831,0,0,0,140.663,18.16788c2.09738-1.70666,2.93943-3.52947,2.93943-5.10631A3.94955,3.94955,0,0,0,139.74061,9.03125Z"/><path class="a" d="M156.29047,9.03125a3.46145,3.46145,0,0,1,.64138.06109.2355.2355,0,0,1,.18489.27361.24012.24012,0,0,1-.27074.18432h0c-2.11841-.00134-3.94447,1.99556-2.71772,5.3715,1.055,2.91284,4.62313,4.67868,5.58382,5.11146a18.57067,18.57067,0,0,0,6.25236,1.0713,18.52479,18.52479,0,0,0,11.57-3.908c2.67289-2.16172,3.65317-4.42391,3.65595-6.40962a6.003,6.003,0,0,0-4.33184-5.76824,6.47613,6.47613,0,0,0-1.52177-.18719c-2.49087.00277-4.09849,1.5558-4.10231,3.13732a2.40959,2.40959,0,0,0,.13919.8127c.77112,2.13093,2.16315,2.13705,2.30129,2.14776a.35337.35337,0,0,1,.085.01309.23148.23148,0,0,1-.10831.44856c-.2997.00287-1.913-.17973-2.71027-2.4553a2.84157,2.84157,0,0,1-.16616-.96681c.00373-1.91105,1.88582-3.59333,4.56158-3.59333a6.67964,6.67964,0,0,1,1.63094.19512,6.466,6.466,0,0,1,4.683,6.21632c0,2.145-1.07091,4.55086-3.8287,6.76764a18.97864,18.97864,0,0,1-11.8576,4.00977,17.00132,17.00132,0,0,1-10.59921-3.39639c-2.09585-1.70666-2.9399-3.52947-2.9399-5.10631A3.95172,3.95172,0,0,1,156.29047,9.03125Z"/><path class="a" d="M168.69424,18.39053a1.71225,1.71225,0,0,1-.15593-.70811h0a2.02486,2.02486,0,0,1,.89253-1.61144h0a5.68955,5.68955,0,0,0-2.86237-2.86562h0a7.66114,7.66114,0,0,0-2.41152-.87064h0c-.11482,1.85886-1.40227,3.27833-2.61123,3.305h0a1.26053,1.26053,0,0,1-.85142-.31882h0a1.373,1.373,0,0,1-.45381-1.05495h0c.00468-1.14042,1.14185-2.45311,3.16494-2.45311h0c.09245,0,.18948.00516.29034.00985h0a4.11992,4.11992,0,0,0-.37246-1.40925h0c-1.39576-2.99219-4.82677-6.306-14.201-6.31717h0c-.2064,0-.4127,0-.63019.0065h0c-.21-.00144-.422-.0065-.62743-.0065h0c-9.37333.01118-12.79955,3.32354-14.19388,6.31717h0a4.07346,4.07346,0,0,0-.37533,1.40648h0c.099-.00708.19464-.0089.28986-.0089h0c2.02032.00182,3.1616,1.31451,3.1616,2.45493h0a1.36857,1.36857,0,0,1-.45133,1.05963h0a1.2666,1.2666,0,0,1-.8473.31128h0c-1.21126-.02706-2.50435-1.44328-2.614-3.30491h0a7.6165,7.6165,0,0,0-2.40779.87341h0a5.72517,5.72517,0,0,0-2.86753,2.8638h0a2.0334,2.0334,0,0,1,.89061,1.61326h0a1.74384,1.74384,0,0,1-.1498.7105h0a.54293.54293,0,0,1-.48967.358h0c-.57886-.06395-.88229-.74415-.90839-1.63706h0a3.24507,3.24507,0,0,1,.11252-.84864h0a3.72041,3.72041,0,0,0-1.83687-.42619h0a4.42265,4.42265,0,0,0-3.40767,2.03992h0a.23183.23183,0,0,1-.31835.07371h0a.22938.22938,0,0,1-.07744-.31367h0a4.87621,4.87621,0,0,1,3.80346-2.25932h0a4.33478,4.33478,0,0,1,1.9839.44062h0a6.25135,6.25135,0,0,1,3.04726-3.02059h0a7.87826,7.87826,0,0,1,2.62433-.93267h0a4.41163,4.41163,0,0,1,.41969-1.64452h0c1.45637-3.17288,5.1432-6.595,14.61213-6.58754h0c.21147,0,.42437.00794.62179.01128h0c.21844-.01128.43507-.00611.63583-.01128h0c9.4741-.00745,13.15806,3.41791,14.61921,6.58754h0a4.522,4.522,0,0,1,.41825,1.64968h0a8.05969,8.05969,0,0,1,2.62806.92751h0a6.25557,6.25557,0,0,1,3.04258,3.02432h0a4.26735,4.26735,0,0,1,1.98571-.44244h0a4.862,4.862,0,0,1,3.80165,2.25741h0a.22728.22728,0,0,1-.07562.31367h0a.232.232,0,0,1-.31835-.07371h0a4.42406,4.42406,0,0,0-3.40768-2.03437h0a3.74186,3.74186,0,0,0-1.8382.422h0a3.30965,3.30965,0,0,1,.11013.84357h0c-.02887.8953-.32954,1.57913-.90926,1.64538h-.01214a.53351.53351,0,0,1-.47245-.365Zm.30439-.70811a1.28829,1.28829,0,0,0,.112.52284h0c.06061.11481.06816.08823.06816.09426h0a1.52274,1.52274,0,0,0,.45085-1.18937h0a3.06536,3.06536,0,0,0-.0606-.55782h0a1.54842,1.54842,0,0,0-.57045,1.13009Zm-41.63616-.56854a1.50868,1.50868,0,0,0,.44769,1.18191h0c0-.0023.014.01587.07285-.09053h0a1.36732,1.36732,0,0,0,.10784-.52284h0a1.54285,1.54285,0,0,0-.57-1.13153h0a2.859,2.859,0,0,0-.05841.563Zm36.043-4.83977c-1.82329,0-2.70186,1.15906-2.70654,1.99184h0a.90222.90222,0,0,0,.30248.70993h0a.77487.77487,0,0,0,.54435.205h0c.83373-.00373,2.06324-1.22531,2.15569-2.89793h0c-.09522-.00373-.19053-.0088-.27915-.0088h-.01683Zm-27.95708,2.903a.83087.83087,0,0,0,.54807-.19751h0a.92993.92993,0,0,0,.29216-.71365h0c0-.83278-.8822-1.99557-2.7032-1.99557h0c-.097,0-.19608.00373-.29827.01071h0c.08728,1.67444,1.321,2.8923,2.16124,2.896Z"/><path class="a" d="M192.18076,36.06168a23.88335,23.88335,0,0,1-13.88261-5.33928h0a.22828.22828,0,0,1-.01309-.32255h0a.23188.23188,0,0,1,.3259-.01444h0a20.14705,20.14705,0,0,0,4.0415,2.63045h0a24.47726,24.47726,0,0,0,9.38452,2.57251s9.97924.68851,16.93264-5.39626c6.95254-6.08516,8.52937-14.61166,4.6717-21.40225,0,0-3.47574-6.40914-10.97061-6.02913a11.11817,11.11817,0,0,0-5.58019,1.9708,8.53717,8.53717,0,0,0-3.19192,6.46985h0a8.92322,8.92322,0,0,0,.36032,2.4619h0a5.70667,5.70667,0,0,0,5.7669,4.1872h0c2.35541.00086,4.62037-1.168,5.27017-2.95864h0a.23085.23085,0,0,1,.29779-.13393h0a.22938.22938,0,0,1,.13537.29358h0c-.76366,2.04786-3.21064,3.25176-5.70333,3.26017h0a6.173,6.173,0,0,1-6.20943-4.5219h0a9.37991,9.37991,0,0,1-.379-2.58838h0A9.00025,9.00025,0,0,1,196.76757,4.395s3.78386-3.69658,10.7886-1.63429c7.00665,2.06468,11.136,9.45076,10.10525,17.76073,0,0-.815,7.82355-10.32179,13.03961A25.86873,25.86873,0,0,1,192.18076,36.06168Z"/><polygon class="a" points="178.298 30.722 178.298 30.722 178.298 30.722 178.302 30.726 178.302 30.726 178.298 30.722 178.298 30.722"/><polygon class="a" points="198.325 10.684 198.325 10.687 198.328 10.689 198.337 10.682 198.33 10.68 198.325 10.684"/><path class="a" d="M187.07866,28.255a.22736.22736,0,0,0-.31462.0803.23589.23589,0,0,0,.08308.31883v-.00516a16.01811,16.01811,0,0,0,2.24527.97512l.12514-.443A18.03653,18.03653,0,0,1,187.07866,28.255Z"/><path class="a" d="M200.65965,7.96321a.19353.19353,0,0,0-.10544.17972l.08126,1.28038a.18983.18983,0,0,0,.07562.134.18335.18335,0,0,0,.14655.03681.63686.63686,0,0,1,.08958-.01673.18788.18788,0,0,0,.15124-.19283l-.084-1.30752a.18976.18976,0,0,0-.08958-.1456.17341.17341,0,0,0-.16806-.00985C200.72323,7.93663,200.69235,7.95154,200.65965,7.96321Z"/><path class="a" d="M199.45346,8.86414a.18807.18807,0,0,0-.05037.16195l.14282.73708a.18345.18345,0,0,0,.08967.12887.19228.19228,0,0,0,.15306.01118c.02992-.01118.05793-.02151.08776-.03174a.17516.17516,0,0,0,.11673-.20821l-.14943-.78565a.18344.18344,0,0,0-.30993-.09474C199.50767,8.8086,199.48148,8.837,199.45346,8.86414Z"/><path class="a" d="M198.33408,10.65713a.02188.02188,0,0,0,.00287.02514c.08021-.05506.15965-.10172.24177-.147a.18534.18534,0,0,0,.07094-.245.10426.10426,0,0,0-.098-.05745.10554.10554,0,0,0-.09341.06625A2.90166,2.90166,0,0,0,198.33408,10.65713Z"/><path class="a" d="M202.02559,7.41656a.18384.18384,0,0,0-.13632.17323l-.04016,1.71172a.19481.19481,0,0,0,.05134.13394.18687.18687,0,0,0,.13442.05421h.09053a.18673.18673,0,0,0,.18681-.18069l.04292-1.73744a.18747.18747,0,0,0-.0719-.14656.18155.18155,0,0,0-.1606-.03594C202.0928,7.39792,202.05915,7.40767,202.02559,7.41656Z"/><path class="a" d="M203.47174,7.1071a.18774.18774,0,0,0-.15688.1522l-.36041,2.12061a.18144.18144,0,0,0,.14569.21051c.03078.00889.05784.01214.08308.01874a.17991.17991,0,0,0,.22408-.14847l.365-2.15244a.17092.17092,0,0,0-.04857-.15545.1863.1863,0,0,0-.154-.05784C203.537,7.09869,203.5053,7.10519,203.47174,7.1071Z"/><path class="a" d="M205.20908,7.425a.19232.19232,0,0,0-.01587-.154.18974.18974,0,0,0-.12695-.08824c-.03356-.00325-.06348-.00984-.097-.01309a.17955.17955,0,0,0-.20267.1237l-.79167,2.36716a.18744.18744,0,0,0,.09809.22639c.02888.01357.056.02476.08212.0369a.17567.17567,0,0,0,.15124.00468.18351.18351,0,0,0,.10363-.11118Z"/><path class="a" d="M206.3126,7.53558a.18481.18481,0,0,0-.22963.08174l-1.33133,2.38017a.18439.18439,0,0,0,.06721.24884c.02523.01348.05133.03031.07848.04522a.18083.18083,0,0,0,.14.02428.18658.18658,0,0,0,.11577-.08957l1.33793-2.391a.18617.18617,0,0,0,.01214-.15219.19035.19035,0,0,0-.0999-.10832C206.37149,7.56312,206.34434,7.54964,206.3126,7.53558Z"/><path class="a" d="M207.65426,8.2241a.13647.13647,0,0,0-.17926.02992l-1.8448,2.31669a.18238.18238,0,0,0,.02429.25018c.02332.022.04569.04254.069.064a.18191.18191,0,0,0,.13728.04627.17142.17142,0,0,0,.12878-.06769l1.82711-2.29622a.16731.16731,0,0,0,.03728-.14378.17985.17985,0,0,0-.08116-.127C207.73638,8.27085,207.69527,8.24934,207.65426,8.2241Z"/><path class="a" d="M208.97708,9.26605a.18861.18861,0,0,0-.25019-.00278l-2.28819,2.05245a.18748.18748,0,0,0-.02428.25066c.02055.02524.0392.051.05783.07562a.18612.18612,0,0,0,.13069.071.17445.17445,0,0,0,.13919-.04674l2.29565-2.06459a.17866.17866,0,0,0,.06167-.13451.18453.18453,0,0,0-.05506-.13671A.7479.7479,0,0,1,208.97708,9.26605Z"/><path class="a" d="M209.794,10.17721a.18475.18475,0,0,0-.252-.02753l-2.52538,1.91994a.18278.18278,0,0,0-.04483.2413c.01395.0238.02982.05277.04483.0761a.1707.1707,0,0,0,.12036.08824.19949.19949,0,0,0,.15038-.03222l2.53838-1.92644a.18816.18816,0,0,0,.02992-.26558A.67122.67122,0,0,1,209.794,10.17721Z"/><path class="a" d="M210.65008,11.49545a.19284.19284,0,0,0-.10822-.09474.19657.19657,0,0,0-.14292.01023l-2.88006,1.48677a.18714.18714,0,0,0-.08221.2413c.01119.02763.02619.056.03833.08317a.18074.18074,0,0,0,.10545.098.17623.17623,0,0,0,.14474-.01071l2.88388-1.48677a.18615.18615,0,0,0,.08031-.24464C210.67628,11.55051,210.66223,11.522,210.65008,11.49545Z"/><path class="a" d="M211.25045,12.886a.17994.17994,0,0,0-.22313-.11013l-3.12383.94988a.169.169,0,0,0-.11014.09474.17527.17527,0,0,0-.00755.14522c.01128.02983.02152.05927.03088.08585a.18571.18571,0,0,0,.22686.113l3.12193-.95275a.18423.18423,0,0,0,.112-.09283.18747.18747,0,0,0,.0065-.14713C211.27283,12.94532,211.2626,12.91454,211.25045,12.886Z"/><path class="a" d="M211.637,14.31633a.1811.1811,0,0,0-.21386-.14283l-3.18263.61662a.1821.1821,0,0,0-.11664.08451.17593.17593,0,0,0-.02715.1414c.00756.03088.01587.06166.02524.08967a.1791.1791,0,0,0,.21472.13671l3.17614-.61844a.16394.16394,0,0,0,.11672-.0738.19507.19507,0,0,0,.02705-.14044A.806.806,0,0,0,211.637,14.31633Z"/><path class="a" d="M211.83582,15.91744a.17713.17713,0,0,0-.05507-.13068.18029.18029,0,0,0-.13537-.0523l-3.17986.09331a.1812.1812,0,0,0-.17743.21147c.00372.02992.00841.05889.014.08728a.18267.18267,0,0,0,.18766.15736l3.16676-.091a.18209.18209,0,0,0,.17926-.18489Z"/><path class="a" d="M208.571,17.08444a.17824.17824,0,0,0-.13537.05277.185.185,0,0,0-.05411.13489.75059.75059,0,0,0,.00373.09149.18024.18024,0,0,0,.17925.17925l3.07154.05554a.18492.18492,0,0,0,.18394-.1671c.00095-.029.00554-.06119.00841-.09006a.17465.17465,0,0,0-.04484-.141.19349.19349,0,0,0-.13441-.06166Z"/><path class="a" d="M208.34506,18.49234a.18027.18027,0,0,0,.15124.19226l2.92031.46959a.18425.18425,0,0,0,.20908-.14283c.00469-.03079.01128-.063.01682-.09474a.17641.17641,0,0,0-.03078-.141.195.195,0,0,0-.1195-.07744l-2.92967-.46777a.18646.18646,0,0,0-.14561.0369.1961.1961,0,0,0-.06911.13537C208.34784,18.43164,208.34784,18.46194,208.34506,18.49234Z"/><path class="a" d="M208.22834,19.41661a.1868.1868,0,0,0,.13633.2063l2.76256.72255a.183.183,0,0,0,.22217-.12c.00937-.02982.02142-.06061.02983-.091a.201.201,0,0,0-.013-.1456.191.191,0,0,0-.11578-.08594l-2.78216-.72819a.1753.1753,0,0,0-.14751.0238.18776.18776,0,0,0-.08116.13031C208.23675,19.35724,208.23206,19.389,208.22834,19.41661Z"/><path class="a" d="M208.01084,20.46267a.17971.17971,0,0,0,.10832.21242l2.50951,1.048a.18467.18467,0,0,0,.24-.09483c.01395-.02849.02705-.0588.03728-.08633a.18208.18208,0,0,0,.00373-.14187.19517.19517,0,0,0-.10076-.10086l-2.5273-1.05313a.17718.17718,0,0,0-.155.00516.17378.17378,0,0,0-.09427.12179A.76567.76567,0,0,0,208.01084,20.46267Z"/><path class="a" d="M207.60942,21.7613a.18524.18524,0,0,0,.08212.22218l2.19489,1.23841a.18613.18613,0,0,0,.25018-.07142c.01587-.02658.03366-.05554.04857-.08078a.198.198,0,0,0,.01587-.14187.19018.19018,0,0,0-.08585-.11157l-2.21171-1.24357a.18308.18308,0,0,0-.155-.01348.1769.1769,0,0,0-.10832.11482A.4938.4938,0,0,0,207.60942,21.7613Z"/><path class="a" d="M207.11736,22.91424a.1872.1872,0,0,0,.06539.23107l1.92693,1.28793a.18264.18264,0,0,0,.25114-.04522c.01864-.02428.03738-.051.05506-.07524a.20344.20344,0,0,0,.03365-.14.20669.20669,0,0,0-.08126-.12189l-1.94-1.29768a.19666.19666,0,0,0-.154-.02285.17672.17672,0,0,0-.11577.10077C207.14442,22.85832,207.13323,22.88767,207.11736,22.91424Z"/><path class="a" d="M206.38736,24.23582a.18469.18469,0,0,0,.04761.24407l1.66641,1.21508a.186.186,0,0,0,.24646-.02466c.01959-.02429.04206-.04809.0607-.071a.18947.18947,0,0,0,.04579-.14235.18556.18556,0,0,0-.07657-.12792L206.701,24.1037a.19492.19492,0,0,0-.14846-.03221.188.188,0,0,0-.12046.08776C206.41442,24.1863,206.40132,24.212,206.38736,24.23582Z"/><path class="a" d="M205.67781,25.239a.18172.18172,0,0,0,.02333.2455l1.36307,1.23659a.188.188,0,0,0,.24923-.00191c.02237-.02056.04579-.04149.06721-.064a.177.177,0,0,0,.05793-.13346.174.174,0,0,0-.05889-.13307l-1.37425-1.25055a.18243.18243,0,0,0-.14092-.04761.19559.19559,0,0,0-.13355.07428A.72854.72854,0,0,1,205.67781,25.239Z"/><path class="a" d="M204.84408,26.20385a.1826.1826,0,0,0-.00745.24359l1.00734,1.24682a.18369.18369,0,0,0,.253.03222c.02619-.02094.04952-.03728.07475-.05736a.19268.19268,0,0,0,.07094-.12562.18692.18692,0,0,0-.0392-.13671l-1.01575-1.26039a.18627.18627,0,0,0-.13633-.06912.17853.17853,0,0,0-.14282.05889C204.887,26.15854,204.86741,26.18234,204.84408,26.20385Z"/><path class="a" d="M204.04209,26.96426a.18242.18242,0,0,0-.03356.24827l.82159,1.15629a.18175.18175,0,0,0,.24359.05229c.02716-.01443.0523-.03269.07754-.04761a.18452.18452,0,0,0,.08776-.12045.16774.16774,0,0,0-.03365-.14283l-.82618-1.168a.18631.18631,0,0,0-.26893-.03595C204.09066,26.92506,204.06542,26.94418,204.04209,26.96426Z"/><path class="a" d="M202.88819,27.82963a.18594.18594,0,0,0-.05783.25114l.62637,1.03125a.18409.18409,0,0,0,.23432.07275c.02992-.01539.05793-.02706.08776-.04293a.17433.17433,0,0,0,.09617-.113.18015.18015,0,0,0-.01864-.14837L203.22241,27.84a.18968.18968,0,0,0-.11672-.08451.17564.17564,0,0,0-.14188.02657C202.93858,27.79885,202.91429,27.81424,202.88819,27.82963Z"/><path class="a" d="M201.67923,28.527a.18819.18819,0,0,0-.08317.24368l.42953.9322a.18907.18907,0,0,0,.22963.09847.63224.63224,0,0,1,.08681-.03078.18322.18322,0,0,0,.10927-.1022.18865.18865,0,0,0,0-.14942l-.43976-.94759a.17913.17913,0,0,0-.1064-.097.18546.18546,0,0,0-.14379.0088C201.73239,28.5,201.70629,28.51356,201.67923,28.527Z"/><path class="a" d="M200.59245,29.01393a.18445.18445,0,0,0-.11013.22131l.24368.86681a.184.184,0,0,0,.2194.12839c.02983-.00659.0588-.01357.08959-.02007a.189.189,0,0,0,.11576-.08824.18371.18371,0,0,0,.0196-.14006l-.24741-.88038a.17629.17629,0,0,0-.09426-.11577.18856.18856,0,0,0-.15219-.00746C200.64847,28.992,200.6196,29.0037,200.59245,29.01393Z"/><path class="a" d="M199.30127,29.45321a.18483.18483,0,0,0-.126.21281l.15688.74884a.18721.18721,0,0,0,.21.1433.65782.65782,0,0,0,.09245-.01548.18221.18221,0,0,0,.15028-.21941l-.16147-.7604a.17586.17586,0,0,0-.08594-.1195.18473.18473,0,0,0-.15029-.01865C199.35825,29.43457,199.33119,29.44337,199.30127,29.45321Z"/><path class="a" d="M198.06057,29.75713a.18608.18608,0,0,0-.14187.19273l.05038.64425a.18888.18888,0,0,0,.06816.12829.18453.18453,0,0,0,.14283.04016c.02982-.00469.05975-.01167.09053-.01348a.18456.18456,0,0,0,.15688-.19751l-.05229-.64837a.175.175,0,0,0-.07381-.13537.18548.18548,0,0,0-.15124-.03174C198.12127,29.74212,198.09135,29.751,198.06057,29.75713Z"/><path class="a" d="M196.38756,30.00406a.18507.18507,0,0,0-.16529.18805l.01032.4911a.17379.17379,0,0,0,.057.12982.186.186,0,0,0,.13537.05086c.03079-.00143.06061-.00287.09053-.00659a.18653.18653,0,0,0,.17553-.18757l-.00937-.49349a.18641.18641,0,0,0-.06071-.13489.199.199,0,0,0-.14283-.04618A.6322.6322,0,0,1,196.38756,30.00406Z"/><path class="a" d="M194.69591,30.10205a.18244.18244,0,0,0-.183.17036l-.02619.32447a.18218.18218,0,0,0,.04579.13719.19523.19523,0,0,0,.12974.06118c.03364,0,.0607.001.09425.00277a.18365.18365,0,0,0,.18862-.16892l.02333-.32772a.18.18,0,0,0-.04665-.14005.18609.18609,0,0,0-.13814-.05928Z"/><path class="a" d="M193.18906,30.06467a.18661.18661,0,0,0-.19417.16061l-.02151.16386a.18577.18577,0,0,0,.15688.20631c.03079.00373.06061.00659.08958.01214a.17949.17949,0,0,0,.13728-.03738.18773.18773,0,0,0,.07094-.1218l.02237-.169a.18536.18536,0,0,0-.04388-.14139.18141.18141,0,0,0-.12877-.06769C193.24881,30.068,193.218,30.06659,193.18906,30.06467Z"/><path class="a" d="M191.49081,29.84154a.17957.17957,0,0,0-.14378.02381.19216.19216,0,0,0-.07839.12l-.01778.09483a.18465.18465,0,0,0,.14751.21281.87075.87075,0,0,0,.09063.01864.1888.1888,0,0,0,.13632-.02839.19128.19128,0,0,0,.0784-.12l.01768-.09015a.18437.18437,0,0,0-.14187-.21281A.82829.82829,0,0,0,191.49081,29.84154Z"/><path class="a" d="M189.75433,29.372l-.12046.44627c.14474.04713.28384.09474.438.13909l.1195-.45C190.04286,29.463,189.89629,29.41956,189.75433,29.372Z"/><path class="a" d="M102.58065,36.06168a23.87984,23.87984,0,0,0,13.88261-5.33928h0a.2295.2295,0,0,0,.013-.32255h0a.23174.23174,0,0,0-.3258-.01444h0a20.11042,20.11042,0,0,1-4.042,2.63045h0a24.47472,24.47472,0,0,1-9.38451,2.57251s-9.97877.68851-16.93131-5.39626C78.8383,24.107,77.26194,15.58045,81.11913,8.78986c0,0,3.4767-6.40914,10.97206-6.02913a11.11685,11.11685,0,0,1,5.57828,1.9708,8.5251,8.5251,0,0,1,3.19238,6.46985h0a8.86792,8.86792,0,0,1-.35984,2.4619h0a5.70631,5.70631,0,0,1-5.7669,4.1872h0c-2.3554.00086-4.62218-1.168-5.26921-2.95864h0a.231.231,0,0,0-.29731-.13393h0a.22752.22752,0,0,0-.13633.29358h0c.76318,2.04786,3.21064,3.25176,5.70285,3.26017h0a6.17217,6.17217,0,0,0,6.20934-4.5219h0a9.3588,9.3588,0,0,0,.37906-2.58838h0A8.99622,8.99622,0,0,0,97.9925,4.395S94.21.69844,87.20429,2.76073c-7.00665,2.06468-11.13592,9.45076-10.10391,17.76073,0,0,.81557,7.82355,10.32092,13.03961A25.86972,25.86972,0,0,0,102.58065,36.06168Z"/><polygon class="a" points="116.463 30.722 116.463 30.722 116.463 30.722 116.46 30.726 116.46 30.726 116.463 30.722 116.463 30.722"/><polygon class="a" points="96.436 10.684 96.436 10.687 96.432 10.689 96.424 10.682 96.431 10.68 96.436 10.684"/><path class="a" d="M107.6837,28.255a.22679.22679,0,0,1,.31367.0803.23546.23546,0,0,1-.08451.31883v-.00516a16.04708,16.04708,0,0,1-2.24346.97512l-.126-.443A18.13781,18.13781,0,0,0,107.6837,28.255Z"/><path class="a" d="M94.1008,7.96321a.19231.19231,0,0,1,.10593.17972l-.0826,1.28038a.1886.1886,0,0,1-.22036.17084.72451.72451,0,0,0-.08958-.01673.18468.18468,0,0,1-.15038-.19283l.08451-1.30752a.18429.18429,0,0,1,.08776-.1456.176.176,0,0,1,.16941-.00985C94.03723,7.93663,94.06944,7.95154,94.1008,7.96321Z"/><path class="a" d="M95.30833,8.86414a.19015.19015,0,0,1,.04952.16195l-.14235.73708a.19319.19319,0,0,1-.09063.12887.19.19,0,0,1-.1521.01118c-.02944-.01118-.05841-.02151-.08919-.03174a.17979.17979,0,0,1-.11807-.20821l.15172-.78565a.18363.18363,0,0,1,.31041-.09474C95.25422,8.8086,95.28175,8.837,95.30833,8.86414Z"/><path class="a" d="M96.42819,10.65713a.02349.02349,0,0,1-.00373.02514c-.08078-.05506-.15965-.10172-.24034-.147a.18249.18249,0,0,1-.07189-.245.10241.10241,0,0,1,.097-.05745.10137.10137,0,0,1,.09149.06625A3.16229,3.16229,0,0,1,96.42819,10.65713Z"/><path class="a" d="M92.73448,7.41656a.18006.18006,0,0,1,.13623.17323l.04159,1.71172a.19021.19021,0,0,1-.05277.13394.17957.17957,0,0,1-.1326.05421h-.09235a.1864.1864,0,0,1-.18537-.18069l-.04245-1.73744A.18768.18768,0,0,1,92.4777,7.425a.17961.17961,0,0,1,.15965-.03594C92.66957,7.39792,92.70179,7.40767,92.73448,7.41656Z"/><path class="a" d="M91.28833,7.1071a.1873.1873,0,0,1,.1587.1522l.35984,2.12061a.18177.18177,0,0,1-.14512.21051c-.02992.00889-.05832.01214-.08547.01874a.19639.19639,0,0,1-.14378-.02476.192.192,0,0,1-.07744-.12371l-.36691-2.15244a.18.18,0,0,1,.04856-.15545.186.186,0,0,1,.15545-.05784C91.22438,7.09869,91.25659,7.10519,91.28833,7.1071Z"/><path class="a" d="M89.55185,7.425a.18551.18551,0,0,1,.01673-.154.189.189,0,0,1,.12743-.08824c.03174-.00325.0631-.00984.09522-.01309a.18047.18047,0,0,1,.20354.1237l.7908,2.36716a.18556.18556,0,0,1-.09808.22639c-.028.01357-.05507.02476-.08212.0369a.17454.17454,0,0,1-.15077.00468.19128.19128,0,0,1-.10411-.11118Z"/><path class="a" d="M88.4469,7.53558a.18477.18477,0,0,1,.23059.08174l1.33037,2.38017a.18274.18274,0,0,1-.06577.24884c-.02476.01348-.05048.03031-.07753.04522a.18365.18365,0,0,1-.14053.02428.18778.18778,0,0,1-.11625-.08957l-1.33736-2.391a.1855.1855,0,0,1,.08776-.26051C88.38858,7.56312,88.41746,7.54964,88.4469,7.53558Z"/><path class="a" d="M87.10438,8.2241a.13911.13911,0,0,1,.18155.02992l1.84346,2.31669a.18158.18158,0,0,1-.0238.25018c-.023.022-.04484.04254-.06769.064a.18375.18375,0,0,1-.13919.04627.18154.18154,0,0,1-.12878-.06769l-1.827-2.29622a.17952.17952,0,0,1-.0369-.14378.18582.18582,0,0,1,.08069-.127C87.026,8.27085,87.06567,8.24934,87.10438,8.2241Z"/><path class="a" d="M85.78472,9.26605a.1886.1886,0,0,1,.25018-.00278l2.28734,2.05245a.18362.18362,0,0,1,.02332.25066c-.01959.02524-.03824.051-.05736.07562a.183.183,0,0,1-.1303.071.17563.17563,0,0,1-.13948-.04674L85.72219,9.6017a.17988.17988,0,0,1-.06118-.13451.18177.18177,0,0,1,.056-.13671C85.74084,9.309,85.76187,9.28842,85.78472,9.26605Z"/><path class="a" d="M84.96647,10.17721a.18563.18563,0,0,1,.25249-.02753l2.52537,1.91994a.18486.18486,0,0,1,.04532.2413c-.01406.0238-.02945.05277-.04484.0761a.17035.17035,0,0,1-.12179.08824.1947.1947,0,0,1-.14895-.03222L84.93655,10.5166a.18706.18706,0,0,1-.069-.12467.17574.17574,0,0,1,.03919-.14091C84.92632,10.23,84.94592,10.20427,84.96647,10.17721Z"/><path class="a" d="M84.11171,11.49545a.18326.18326,0,0,1,.10736-.09474.19426.19426,0,0,1,.14244.01023l2.87968,1.48677a.18458.18458,0,0,1,.08307.2413c-.01309.02763-.02476.056-.03833.08317a.18208.18208,0,0,1-.10545.098.17693.17693,0,0,1-.14522-.01071l-2.88435-1.48677a.18647.18647,0,0,1-.08021-.24464C84.08418,11.55051,84.09909,11.522,84.11171,11.49545Z"/><path class="a" d="M83.50952,12.886a.18315.18315,0,0,1,.22505-.11013l3.12288.94988a.17108.17108,0,0,1,.11061.09474.177.177,0,0,1,.00793.14522c-.0107.02983-.02141.05927-.03308.08585a.18426.18426,0,0,1-.22647.113L83.596,13.21186a.18331.18331,0,0,1-.11157-.09283.18728.18728,0,0,1-.00793-.14713C83.48906,12.94532,83.49882,12.91454,83.50952,12.886Z"/><path class="a" d="M83.12349,14.31633a.183.183,0,0,1,.21567-.14283l3.18034.61662a.18466.18466,0,0,1,.11807.08451.175.175,0,0,1,.02476.1414c-.00612.03088-.01406.06166-.021.08967a.18183.18183,0,0,1-.2152.13671l-3.177-.61844a.16451.16451,0,0,1-.11673-.0738.18553.18553,0,0,1-.02945-.14044C83.11049,14.37789,83.116,14.34759,83.12349,14.31633Z"/><path class="a" d="M82.92512,15.91744a.18416.18416,0,0,1,.18862-.183l3.18215.09331a.18121.18121,0,0,1,.17648.21147c-.00287.02992-.00937.05889-.0131.08728a.18489.18489,0,0,1-.18862.15736l-3.16772-.091a.18181.18181,0,0,1-.17781-.18489Z"/><path class="a" d="M86.1913,17.08444a.18292.18292,0,0,1,.13537.05277.19057.19057,0,0,1,.05421.13489c-.00239.03031-.00239.06118-.00373.09149a.182.182,0,0,1-.1802.17925l-3.07107.05554a.18433.18433,0,0,1-.18441-.1671c-.00325-.029-.007-.06119-.0089-.09006a.17977.17977,0,0,1,.04484-.141.19444.19444,0,0,1,.13442-.06166Z"/><path class="a" d="M86.41683,18.49234a.18109.18109,0,0,1-.15268.19226l-2.91839.46959a.18433.18433,0,0,1-.21013-.14283c-.00507-.03079-.01214-.063-.01769-.09474a.18939.18939,0,0,1,.02983-.141.20234.20234,0,0,1,.12094-.07744l2.93053-.46777a.18581.18581,0,0,1,.14474.0369.19962.19962,0,0,1,.06912.13537C86.4131,18.43164,86.414,18.46194,86.41683,18.49234Z"/><path class="a" d="M86.53346,19.41661a.189.189,0,0,1-.13585.2063l-2.7639.72255a.18476.18476,0,0,1-.22313-.12c-.00928-.02982-.02008-.06061-.02935-.091a.19453.19453,0,0,1,.01539-.1456.1796.1796,0,0,1,.11386-.08594l2.78025-.72819a.17953.17953,0,0,1,.15028.0238.18516.18516,0,0,1,.08031.13031A.812.812,0,0,0,86.53346,19.41661Z"/><path class="a" d="M86.75152,20.46267a.18213.18213,0,0,1-.10831.21242l-2.5119,1.048a.18356.18356,0,0,1-.239-.09483c-.01444-.02849-.02658-.0588-.03777-.08633A.18212.18212,0,0,1,83.85129,21.4a.19321.19321,0,0,1,.09991-.10086L86.47935,20.246a.17612.17612,0,0,1,.15449.00516.18344.18344,0,0,1,.09569.12179C86.737,20.4034,86.74445,20.43188,86.75152,20.46267Z"/><path class="a" d="M87.152,21.7613a.18571.18571,0,0,1-.08308.22218l-2.19537,1.23841a.18583.18583,0,0,1-.24971-.07142c-.01539-.02658-.03222-.05554-.049-.08078a.20016.20016,0,0,1-.01492-.14187.18943.18943,0,0,1,.08538-.11157l2.21219-1.24357a.18449.18449,0,0,1,.15593-.01348.18148.18148,0,0,1,.10687.11482C87.13144,21.70251,87.14262,21.73138,87.152,21.7613Z"/><path class="a" d="M87.64261,22.91424a.18488.18488,0,0,1-.06491.23107l-1.92644,1.28793a.18423.18423,0,0,1-.25257-.04522c-.01731-.02428-.03548-.051-.05412-.07524a.19765.19765,0,0,1-.03222-.14.20458.20458,0,0,1,.07983-.12189l1.94136-1.29768a.19487.19487,0,0,1,.15315-.02285.17959.17959,0,0,1,.11673.10077C87.61508,22.85832,87.62809,22.88767,87.64261,22.91424Z"/><path class="a" d="M88.37405,24.23582a.18642.18642,0,0,1-.04808.24407L86.65908,25.695a.18412.18412,0,0,1-.24512-.02466c-.02056-.02429-.04245-.04809-.06252-.071a.17912.17912,0,0,1-.04389-.14235.18168.18168,0,0,1,.07467-.12792l1.67865-1.22531a.19321.19321,0,0,1,.14847-.03221.18324.18324,0,0,1,.11988.08776C88.34556,24.1863,88.35962,24.212,88.37405,24.23582Z"/><path class="a" d="M89.08264,25.239a.1807.1807,0,0,1-.0238.2455l-1.36212,1.23659a.18735.18735,0,0,1-.24875-.00191c-.02246-.02056-.04627-.04149-.06816-.064a.17815.17815,0,0,1-.05927-.13346.18137.18137,0,0,1,.06156-.13307l1.3733-1.25055a.18426.18426,0,0,1,.142-.04761.1877.1877,0,0,1,.13116.07428C89.0467,25.18991,89.06448,25.21515,89.08264,25.239Z"/><path class="a" d="M89.91733,26.20385a.18422.18422,0,0,1,.00841.24359l-1.00782,1.24682a.185.185,0,0,1-.254.03222c-.02514-.02094-.0499-.03728-.07371-.05736a.18381.18381,0,0,1-.03221-.26233l1.01527-1.26039a.18628.18628,0,0,1,.13681-.06912.17662.17662,0,0,1,.14187.05889C89.87393,26.15854,89.89486,26.18234,89.91733,26.20385Z"/><path class="a" d="M90.71836,26.96426a.18249.18249,0,0,1,.034.24827l-.82111,1.15629a.18118.18118,0,0,1-.24273.05229c-.02658-.01443-.05459-.03269-.07887-.04761a.18306.18306,0,0,1-.08585-.12045.17413.17413,0,0,1,.02983-.14283l.829-1.168a.18651.18651,0,0,1,.126-.0761.1912.1912,0,0,1,.142.04015C90.67162,26.92506,90.69542,26.94418,90.71836,26.96426Z"/><path class="a" d="M91.87322,27.82963a.18487.18487,0,0,1,.05688.25114L91.3042,29.112a.1839.1839,0,0,1-.23479.07275c-.029-.01539-.05746-.02706-.08642-.04293a.17177.17177,0,0,1-.097-.113.17861.17861,0,0,1,.01817-.14837l.6344-1.04051a.18638.18638,0,0,1,.11759-.08451.17352.17352,0,0,1,.14053.02657C91.82274,27.79885,91.8475,27.81424,91.87322,27.82963Z"/><path class="a" d="M93.08266,28.527a.1886.1886,0,0,1,.08307.24368l-.43125.9322a.1858.1858,0,0,1-.22734.09847.71429.71429,0,0,0-.08967-.03078.17894.17894,0,0,1-.10688-.1022.18464.18464,0,0,1,.001-.14942l.43594-.94759a.1895.1895,0,0,1,.10831-.097.18612.18612,0,0,1,.14426.0088C93.029,28.5,93.05512,28.51356,93.08266,28.527Z"/><path class="a" d="M94.16849,29.01393a.18263.18263,0,0,1,.10917.22131l-.24225.86681a.18561.18561,0,0,1-.2194.12839c-.0303-.00659-.05927-.01357-.08958-.02007a.19225.19225,0,0,1-.11673-.08824.18734.18734,0,0,1-.01864-.14006l.24732-.88038a.18015.18015,0,0,1,.09483-.11577.18512.18512,0,0,1,.15077-.00746C94.11333,28.992,94.1423,29.0037,94.16849,29.01393Z"/><path class="a" d="M95.45919,29.45321a.18234.18234,0,0,1,.12552.21281l-.15688.74884a.18454.18454,0,0,1-.20956.1433.62768.62768,0,0,1-.091-.01548.18062.18062,0,0,1-.1499-.21941l.16014-.7604a.17663.17663,0,0,1,.08546-.1195.18781.18781,0,0,1,.15124-.01865C95.40221,29.43457,95.4307,29.44337,95.45919,29.45321Z"/><path class="a" d="M96.70037,29.75713a.18554.18554,0,0,1,.14235.19273l-.05086.64425a.19023.19023,0,0,1-.06769.12829.18508.18508,0,0,1-.1433.04016c-.03031-.00469-.06071-.01167-.09054-.01348a.18493.18493,0,0,1-.15687-.19751l.05181-.64837a.17878.17878,0,0,1,.07332-.13537.18622.18622,0,0,1,.15124-.03174C96.64014,29.74212,96.67006,29.751,96.70037,29.75713Z"/><path class="a" d="M98.37242,30.00406a.18694.18694,0,0,1,.16711.18805l-.01119.4911a.17631.17631,0,0,1-.05784.12982.18315.18315,0,0,1-.135.05086c-.02983-.00143-.06014-.00287-.09054-.00659a.1849.1849,0,0,1-.17552-.18757l.00937-.49349a.18158.18158,0,0,1,.06118-.13489.19785.19785,0,0,1,.14092-.04618A.72493.72493,0,0,0,98.37242,30.00406Z"/><path class="a" d="M100.06693,30.10205a.18211.18211,0,0,1,.18155.17036l.02524.32447a.1845.1845,0,0,1-.04627.13719.18934.18934,0,0,1-.12925.06118c-.03127,0-.06071.001-.092.00277a.18523.18523,0,0,1-.19092-.16892l-.02284-.32772a.17612.17612,0,0,1,.04846-.14005.17967.17967,0,0,1,.13681-.05928Z"/><path class="a" d="M101.57188,30.06467a.186.186,0,0,1,.19512.16061l.021.16386a.185.185,0,0,1-.15736.20631c-.02935.00373-.06071.00659-.0891.01214a.17633.17633,0,0,1-.1368-.03738.17959.17959,0,0,1-.07046-.1218l-.02294-.169a.18605.18605,0,0,1,.04158-.14139.19139.19139,0,0,1,.13069-.06769C101.51356,30.068,101.54339,30.06659,101.57188,30.06467Z"/><path class="a" d="M103.27012,29.84154a.1788.1788,0,0,1,.14331.02381.19346.19346,0,0,1,.07934.12l.01492.09483a.18133.18133,0,0,1-.14474.21281c-.02849.00745-.05975.01357-.09006.01864a.19381.19381,0,0,1-.13814-.02839.19832.19832,0,0,1-.078-.12l-.01587-.09015a.18314.18314,0,0,1,.14005-.21281C103.20941,29.85416,103.24068,29.84527,103.27012,29.84154Z"/><path class="a" d="M105.00747,29.372l.1195.44627c-.14417.04713-.28422.09474-.4369.13909l-.12084-.45C104.71761,29.463,104.86559,29.41956,105.00747,29.372Z"/><text class="c" transform="translate(115.66734 108.85048)">&amp;</text><path class="a" d="M142.90505,120.22851c15.1418-.20706,22.16227-5.12915,25.98975-7.99013h0a.21582.21582,0,0,0,.04361-.303h0a.21264.21264,0,0,0-.29847-.04184h0c-3.80371,2.831-10.76967,7.52962-25.8222,7.749h0c-.207,0-.42044.0041-.6274,0h0a41.79439,41.79439,0,0,1-24.0646-7.31763h0v.00363a.21372.21372,0,0,0-.30256.03588h0a.21066.21066,0,0,0,.04091.29669h0a42.14871,42.14871,0,0,0,24.41449,7.57156h0c.21023,0,.42268-.0041.62647-.0041Z"/><path class="a" d="M168.67545,115.861s.25206-.14155,0-.35717c0,0-.17929-.10782-.43041.14378,0,0-8.82691,6.57235-26.34319,6.303,0,0-13.86138.26939-23.53178-6.33893,0,0-.26939-.21563-.3772.10781-.10651.3226.32213.48418.48361.64566a46.3058,46.3058,0,0,0,23.85624,7.57566A40.33714,40.33714,0,0,0,168.67545,115.861Z"/><text class="d" transform="translate(33.52281 118.22255)">Chand<tspan class="e" x="50.18311" y="0">a</tspan></text><text class="d" transform="translate(196.78697 118.22255)"><tspan class="f">N</tspan><tspan x="11.78125" y="0">kulu</tspan></text></svg>